<svg id="site__logo" data-name="Layer 1" xmlns="http://www.w3.org/2000/svg" viewBox="0 0 482.51 127.71"><defs><style>.cls-1{fill:#fff;}.cls-2{fill:#c2d500;}</style></defs><title>Vector Smart Object</title><path class="cls-1" d="M356.84,525.54a18.58,18.58,0,0,0,4.26-1.81v-9.8a11.93,11.93,0,0,1-6,1.6c-2.63,0-3.94-1.39-3.94-4.19V492.87h10.13V482.42H351.14v-11H338.92v11h-5.14v10.45h5.14v20.41a18,18,0,0,0,.92,6.23,10.26,10.26,0,0,0,2.58,4,9,9,0,0,0,3.94,2.13,20,20,0,0,0,5.1.6,19,19,0,0,0,5.38-.68" transform="translate(-182.12 -398.91)"/><path class="cls-1" d="M368.66,525.5h12.22v-24q0-4.33,2.05-6.54a7.22,7.22,0,0,1,5.58-2.2A6.88,6.88,0,0,1,394,495c1.28,1.47,1.93,3.65,1.93,6.54v24h12.21V497.61q0-7.47-3.81-11.74t-10.81-4.26a14.13,14.13,0,0,0-4.18.57,13.71,13.71,0,0,0-3.38,1.54,15.83,15.83,0,0,0-2.77,2.23,24.64,24.64,0,0,0-2.29,2.63V466.82H368.66Z" transform="translate(-182.12 -398.91)"/><polygon class="cls-1" points="308.97 127 319.74 127 332.44 90.18 345.14 127 355.91 127 375.12 70.33 362.18 70.33 350.53 108.43 337.91 70.17 327.3 70.17 314.68 108.43 303.02 70.33 289.76 70.33 308.97 127"/><rect class="cls-1" x="469.56" y="113.73" width="100%" height="100%"/><path class="cls-1" d="M507.43,455.17h12.22v-24q0-4.33,2.05-6.54a7.22,7.22,0,0,1,5.58-2.2,6.88,6.88,0,0,1,5.47,2.2q1.93,2.2,1.93,6.54v24H546.9V427.28q0-7.47-3.82-11.74t-10.81-4.26a14.13,14.13,0,0,0-4.18.57,13.71,13.71,0,0,0-3.38,1.54,15.83,15.83,0,0,0-2.77,2.23,24.64,24.64,0,0,0-2.29,2.63v-6.16H507.43Zm-32,0h12.22V439.26q0-7.8,3.49-11.5t9.61-3.7h.64V411.28c-3.64-.16-6.54.65-8.68,2.42a17.83,17.83,0,0,0-5.06,7.07v-8.68H475.44Zm-24.92-.68a17,17,0,0,0,5.39-4v4.66h11.81v-25a25.49,25.49,0,0,0-1.12-7.83,14.48,14.48,0,0,0-3.54-5.91,15.32,15.32,0,0,0-5.91-3.58,26.39,26.39,0,0,0-8.64-1.24,39.1,39.1,0,0,0-9.32,1,47.18,47.18,0,0,0-7.39,2.49l3.05,9.33a41.51,41.51,0,0,1,5.67-1.73,28.76,28.76,0,0,1,6.23-.61c3.05,0,5.35.68,6.91,2a7.34,7.34,0,0,1,2.33,5.87v.73a35.47,35.47,0,0,0-4.78-1.29,30.29,30.29,0,0,0-5.75-.48,27.43,27.43,0,0,0-7,.84,16.14,16.14,0,0,0-5.47,2.53,11.81,11.81,0,0,0-3.58,4.26,13.63,13.63,0,0,0-1.28,6.11v.16a13.14,13.14,0,0,0,1.16,5.67,12.27,12.27,0,0,0,3.18,4.14,13.48,13.48,0,0,0,4.7,2.53,19.22,19.22,0,0,0,5.75.84,17.72,17.72,0,0,0,7.63-1.48m-8.76-8.32a4.53,4.53,0,0,1-1.85-3.86v-.16a5,5,0,0,1,2.25-4.42,10.9,10.9,0,0,1,6.19-1.53,19.52,19.52,0,0,1,4.22.44,19,19,0,0,1,3.58,1.17V440a6.65,6.65,0,0,1-2.61,5.46,10.77,10.77,0,0,1-7,2.09,7.91,7.91,0,0,1-4.82-1.36M414.84,454a21.73,21.73,0,0,0,7.39-5.91l-7-6.19a18.59,18.59,0,0,1-5,3.37,13.5,13.5,0,0,1-5.46,1.05,11,11,0,0,1-6.87-2.13,10.28,10.28,0,0,1-3.66-6.31h30c.05-.59.09-1.15.12-1.69s0-1,0-1.53a31,31,0,0,0-1.24-8.8,21.76,21.76,0,0,0-3.86-7.47,19.06,19.06,0,0,0-6.55-5.19,21.11,21.11,0,0,0-9.33-1.93,20.4,20.4,0,0,0-15.35,6.6,22,22,0,0,0-4.38,7.15,24.21,24.21,0,0,0-1.57,8.68v.16a23.41,23.41,0,0,0,1.69,9,21.32,21.32,0,0,0,4.7,7,20.79,20.79,0,0,0,7.16,4.58,24.55,24.55,0,0,0,9,1.61A23.1,23.1,0,0,0,414.84,454M394.1,430.25a12.5,12.5,0,0,1,3.09-6.67,8.21,8.21,0,0,1,6.23-2.49,8,8,0,0,1,6.19,2.53,11.91,11.91,0,0,1,2.9,6.63Zm-55.9,24.92h40.43V444H350.58V398.91H338.2Z" transform="translate(-182.12 -398.91)"/><path class="cls-1" d="M182.12,399.06V526.61H309.68V399.06ZM295.51,512.44H196.3V413.23h99.21Z" transform="translate(-182.12 -398.91)"/><polygon class="cls-1" points="28.35 56.84 28.35 99.36 70.87 99.36 70.87 85.19 42.52 85.19 42.52 56.84 28.35 56.84"/><polygon class="cls-2" points="28.35 42.67 56.69 42.67 56.69 71.02 85.04 71.02 85.04 99.36 99.21 99.36 99.21 56.84 70.87 56.84 70.87 28.5 28.35 28.5 28.35 42.67"/><path class="cls-1" d="M646.34,494.35a21.38,21.38,0,0,0-4.38-7,18.17,18.17,0,0,0-6.27-4.3,19.18,19.18,0,0,0-7.31-1.45,15,15,0,0,0-8,2,19.37,19.37,0,0,0-5.42,5V466.82H602.74V525.5H615v-5.63a21.35,21.35,0,0,0,5.34,4.51,15.42,15.42,0,0,0,8.08,1.92,19.38,19.38,0,0,0,7.39-1.44,17.74,17.74,0,0,0,6.23-4.3,21.58,21.58,0,0,0,4.34-7A25.52,25.52,0,0,0,648,504v-.16A25.61,25.61,0,0,0,646.34,494.35ZM635.77,504a13.46,13.46,0,0,1-.84,4.9,11.64,11.64,0,0,1-2.29,3.74,10.08,10.08,0,0,1-3.34,2.41,10.1,10.1,0,0,1-8.11,0,9.63,9.63,0,0,1-3.3-2.41,11.79,11.79,0,0,1-2.25-3.78,13.55,13.55,0,0,1-.84-4.86v-.16a13.55,13.55,0,0,1,.84-4.86,11.79,11.79,0,0,1,2.25-3.78,10,10,0,0,1,11.41-2.41,10.08,10.08,0,0,1,3.34,2.41,11.52,11.52,0,0,1,2.29,3.78,13.55,13.55,0,0,1,.84,4.86Z" transform="translate(-182.12 -398.91)"/><path class="cls-1" d="M595.22,496.2a21.56,21.56,0,0,0-3.85-7.47,19.15,19.15,0,0,0-6.55-5.19,21.11,21.11,0,0,0-9.33-1.93,20.82,20.82,0,0,0-8.64,1.77,20.47,20.47,0,0,0-6.71,4.83,21.86,21.86,0,0,0-4.38,7.15,24,24,0,0,0-1.57,8.68v.16a23.23,23.23,0,0,0,1.69,9,21.32,21.32,0,0,0,4.7,7,20.69,20.69,0,0,0,7.16,4.58,24.51,24.51,0,0,0,9,1.61,23.1,23.1,0,0,0,10.21-2.13,21.73,21.73,0,0,0,7.39-5.91l-7-6.19a18.59,18.59,0,0,1-5,3.37,13.53,13.53,0,0,1-5.46,1,10.93,10.93,0,0,1-6.87-2.13,10.28,10.28,0,0,1-3.66-6.31h30c.05-.59.09-1.15.12-1.69s0-1,0-1.53A31,31,0,0,0,595.22,496.2Zm-29.05,4.38a12.5,12.5,0,0,1,3.09-6.67,8.21,8.21,0,0,1,6.23-2.49,8,8,0,0,1,6.19,2.53,11.9,11.9,0,0,1,2.89,6.63Z" transform="translate(-182.12 -398.91)"/><path class="cls-1" d="M454.86,496.2a21.56,21.56,0,0,0-3.85-7.47,19.1,19.1,0,0,0-6.56-5.19,21,21,0,0,0-9.32-1.93,20.82,20.82,0,0,0-8.64,1.77,20.47,20.47,0,0,0-6.71,4.83,21.86,21.86,0,0,0-4.38,7.15,24,24,0,0,0-1.57,8.68v.16a23.23,23.23,0,0,0,1.69,9,21.16,21.16,0,0,0,4.7,7,20.74,20.74,0,0,0,7.15,4.58,24.61,24.61,0,0,0,9,1.61,23,23,0,0,0,10.2-2.13,21.67,21.67,0,0,0,7.4-5.91l-7-6.19a18.59,18.59,0,0,1-5,3.37,13.53,13.53,0,0,1-5.46,1,10.91,10.91,0,0,1-6.87-2.13,10.28,10.28,0,0,1-3.66-6.31h30c.05-.59.09-1.15.12-1.69s0-1,0-1.53A31,31,0,0,0,454.86,496.2Zm-29.05,4.38a12.5,12.5,0,0,1,3.09-6.67,8.21,8.21,0,0,1,6.23-2.49,8,8,0,0,1,6.19,2.53,11.9,11.9,0,0,1,2.89,6.63Z" transform="translate(-182.12 -398.91)"/></svg>
